<svg height="512pt" viewBox="0 0 512 512" width="512pt" xmlns="http://www.w3.org/2000/svg" xmlns:xlink="http://www.w3.org/1999/xlink"><linearGradient id="a" gradientUnits="userSpaceOnUse" x1="256" x2="256" y1="0" y2="512"><stop offset="0" stop-color="#2af598"/><stop offset="1" stop-color="#009efd"/></linearGradient><path d="m512 293c0 19.328125-15.671875 35-35 35-11.890625 0-22.390625-5.9375-28.714844-15h-254.570312c-6.324219 9.0625-16.824219 15-28.714844 15-19.328125 0-35-15.671875-35-35s15.671875-35 35-35c11.890625 0 22.390625 5.9375 28.714844 15h254.570312c6.324219-9.0625 16.824219-15 28.714844-15 19.328125 0 35 15.671875 35 35zm-35 149c-11.890625 0-22.390625 5.9375-28.714844 15h-25.285156v-93h-175.613281c-6.234375-9.625-17.0625-16-29.386719-16-19.328125 0-35 15.671875-35 35s15.671875 35 35 35c11.449219 0 21.613281-5.5 28-14h137v93h65.285156c6.324219 9.0625 16.824219 15 28.714844 15 19.328125 0 35-15.671875 35-35s-15.671875-35-35-35zm-20-302.285156v44.285156h-151.613281c-6.234375-9.625-17.0625-16-29.386719-16-19.328125 0-35 15.671875-35 35s15.671875 35 35 35c11.449219 0 21.613281-5.5 28-14h193v-84.285156c9.0625-6.324219 15-16.824219 15-28.714844 0-19.328125-15.671875-35-35-35s-35 15.671875-35 35c0 11.890625 5.9375 22.390625 15 28.714844zm-252 326.835937c-34.78125-18.613281-165-96.710937-165-222.082031v-120.429688c0-9.730468 6.410156-18 15.238281-19.652343 53.398438-10.019531 101.359375-39.683594 125.195313-56.476563 7.347656-5.175781 15.84375-7.910156 24.566406-7.910156s17.21875 2.734375 24.5625 7.910156c23.839844 16.792969 71.800781 46.457032 125.199219 56.476563 8.828125 1.652343 15.238281 9.921875 15.238281 19.652343v18.960938h40v-18.960938c0-28.964843-20.132812-53.765624-47.863281-58.96875-45.960938-8.621093-88.355469-34.9375-109.539063-49.859374-14.121094-9.953126-30.582031-15.210938-47.597656-15.210938s-33.476562 5.257812-47.601562 15.210938c-21.179688 14.921874-63.574219 41.238281-109.535157 49.859374-27.734375 5.203126-47.863281 30.003907-47.863281 58.96875v120.429688c0 39.648438 10.613281 78.324219 31.542969 114.945312 16.414062 28.726563 39.167969 56.1875 67.628906 81.625 47.902344 42.8125 95.386719 65.160157 97.386719 66.089844l8.441406 3.933594 8.441406-3.933594c1.976563-.917968 48.421875-22.25 95.777344-64.128906h-64.921875c-16.585937 11.441406-30.792969 19.003906-39.296875 23.550781zm0 0" fill="url(#a)"/></svg>